<svg width="900" height="1200" viewBox="0 0 900 1200" fill="none" xmlns="http://www.w3.org/2000/svg">
  <rect width="900" height="1200" rx="44" fill="#020617"/>
  <rect x="40" y="40" width="820" height="1120" rx="32" fill="url(#paint0_linear)"/>
  <rect x="84" y="90" width="732" height="160" rx="28" fill="#0F172A"/>
  <rect x="120" y="126" width="180" height="28" rx="14" fill="#38BDF8" fill-opacity="0.2"/>
  <rect x="120" y="168" width="320" height="18" rx="9" fill="#CBD5E1" fill-opacity="0.9"/>
  <rect x="570" y="118" width="180" height="96" rx="24" fill="#1E293B"/>
  <rect x="84" y="286" width="340" height="782" rx="28" fill="#0F172A"/>
  <rect x="456" y="286" width="360" height="782" rx="28" fill="#0F172A"/>
  <rect x="120" y="334" width="144" height="18" rx="9" fill="#A78BFA" fill-opacity="0.75"/>
  <rect x="120" y="380" width="256" height="14" rx="7" fill="#94A3B8"/>
  <rect x="120" y="406" width="220" height="14" rx="7" fill="#475569"/>
  <rect x="120" y="478" width="144" height="18" rx="9" fill="#A78BFA" fill-opacity="0.75"/>
  <rect x="120" y="524" width="210" height="14" rx="7" fill="#94A3B8"/>
  <rect x="120" y="550" width="180" height="14" rx="7" fill="#475569"/>
  <rect x="492" y="334" width="172" height="18" rx="9" fill="#38BDF8" fill-opacity="0.75"/>
  <rect x="492" y="380" width="276" height="14" rx="7" fill="#94A3B8"/>
  <rect x="492" y="406" width="240" height="14" rx="7" fill="#475569"/>
  <rect x="492" y="472" width="172" height="18" rx="9" fill="#38BDF8" fill-opacity="0.75"/>
  <rect x="492" y="518" width="276" height="14" rx="7" fill="#94A3B8"/>
  <rect x="492" y="544" width="240" height="14" rx="7" fill="#475569"/>
  <rect x="492" y="610" width="172" height="18" rx="9" fill="#38BDF8" fill-opacity="0.75"/>
  <rect x="492" y="656" width="276" height="14" rx="7" fill="#94A3B8"/>
  <rect x="492" y="682" width="240" height="14" rx="7" fill="#475569"/>
  <rect x="120" y="632" width="220" height="220" rx="28" fill="url(#paint1_linear)"/>
  <rect x="120" y="888" width="220" height="18" rx="9" fill="#CBD5E1"/>
  <rect x="120" y="922" width="160" height="14" rx="7" fill="#475569"/>
  <defs>
    <linearGradient id="paint0_linear" x1="450" y1="40" x2="450" y2="1160" gradientUnits="userSpaceOnUse">
      <stop stop-color="#111827"/>
      <stop offset="1" stop-color="#0F172A"/>
    </linearGradient>
    <linearGradient id="paint1_linear" x1="120" y1="632" x2="340" y2="852" gradientUnits="userSpaceOnUse">
      <stop stop-color="#38BDF8"/>
      <stop offset="1" stop-color="#8B5CF6"/>
    </linearGradient>
  </defs>
</svg>
