<svg width="1200" height="720" viewBox="0 0 1200 720" fill="none" xmlns="http://www.w3.org/2000/svg">
  <rect width="1200" height="720" rx="40" fill="#020617"/>
  <rect x="36" y="36" width="1128" height="648" rx="32" fill="url(#paint0_linear)"/>
  <rect x="92" y="92" width="240" height="30" rx="15" fill="#A78BFA" fill-opacity="0.25"/>
  <rect x="92" y="146" width="412" height="18" rx="9" fill="#E2E8F0"/>
  <rect x="92" y="178" width="318" height="16" rx="8" fill="#64748B"/>
  <rect x="92" y="252" width="716" height="352" rx="28" fill="#0F172A"/>
  <rect x="838" y="252" width="270" height="166" rx="28" fill="#0F172A"/>
  <rect x="838" y="438" width="270" height="166" rx="28" fill="#0F172A"/>
  <path d="M160 530C232 468 272 480 340 420C390 376 466 360 532 388C610 422 638 364 732 322" stroke="#38BDF8" stroke-width="18" stroke-linecap="round"/>
  <circle cx="340" cy="420" r="14" fill="#A78BFA"/>
  <circle cx="532" cy="388" r="14" fill="#A78BFA"/>
  <circle cx="732" cy="322" r="14" fill="#A78BFA"/>
  <rect x="874" y="292" width="130" height="16" rx="8" fill="#38BDF8"/>
  <rect x="874" y="330" width="182" height="16" rx="8" fill="#94A3B8"/>
  <rect x="874" y="476" width="118" height="16" rx="8" fill="#38BDF8"/>
  <rect x="874" y="514" width="166" height="16" rx="8" fill="#94A3B8"/>
  <defs>
    <linearGradient id="paint0_linear" x1="600" y1="36" x2="600" y2="684" gradientUnits="userSpaceOnUse">
      <stop stop-color="#111827"/>
      <stop offset="1" stop-color="#0F172A"/>
    </linearGradient>
  </defs>
</svg>
