<svg width="1200" height="720" viewBox="0 0 1200 720" fill="none" xmlns="http://www.w3.org/2000/svg">
  <rect width="1200" height="720" rx="40" fill="#020617"/>
  <rect x="36" y="36" width="1128" height="648" rx="32" fill="url(#paint0_linear)"/>
  <rect x="90" y="92" width="200" height="30" rx="15" fill="#38BDF8" fill-opacity="0.25"/>
  <rect x="90" y="146" width="360" height="18" rx="9" fill="#E2E8F0"/>
  <rect x="90" y="178" width="270" height="16" rx="8" fill="#64748B"/>
  <rect x="90" y="260" width="260" height="304" rx="28" fill="#0F172A"/>
  <rect x="380" y="260" width="720" height="144" rx="28" fill="#0F172A"/>
  <rect x="380" y="420" width="230" height="144" rx="28" fill="#0F172A"/>
  <rect x="632" y="420" width="230" height="144" rx="28" fill="#0F172A"/>
  <rect x="884" y="420" width="216" height="144" rx="28" fill="#0F172A"/>
  <rect x="132" y="304" width="176" height="18" rx="9" fill="#A78BFA"/>
  <rect x="132" y="342" width="130" height="16" rx="8" fill="#94A3B8"/>
  <rect x="132" y="384" width="176" height="18" rx="9" fill="#38BDF8"/>
  <rect x="132" y="422" width="122" height="16" rx="8" fill="#94A3B8"/>
  <rect x="420" y="300" width="170" height="18" rx="9" fill="#38BDF8"/>
  <rect x="420" y="338" width="306" height="16" rx="8" fill="#94A3B8"/>
  <rect x="420" y="466" width="112" height="16" rx="8" fill="#A78BFA"/>
  <rect x="672" y="466" width="130" height="16" rx="8" fill="#A78BFA"/>
  <rect x="924" y="466" width="116" height="16" rx="8" fill="#A78BFA"/>
  <defs>
    <linearGradient id="paint0_linear" x1="600" y1="36" x2="600" y2="684" gradientUnits="userSpaceOnUse">
      <stop stop-color="#111827"/>
      <stop offset="1" stop-color="#0F172A"/>
    </linearGradient>
  </defs>
</svg>
